<?xml version="1.0" encoding="UTF-8"?>
<!DOCTYPE svg PUBLIC "-//W3C//DTD SVG 1.1//EN" "http://www.w3.org/Graphics/SVG/1.1/DTD/svg11.dtd">
<!-- Creator: CorelDRAW X6 -->
<svg xmlns="http://www.w3.org/2000/svg" xml:space="preserve" width="115.614mm" height="17.0181mm" version="1.1" style="shape-rendering:geometricPrecision; text-rendering:geometricPrecision; image-rendering:optimizeQuality; fill-rule:evenodd; clip-rule:evenodd"
viewBox="0 0 3357 494"
 xmlns:xlink="http://www.w3.org/1999/xlink">
 <defs>
  <style type="text/css">
   <![CDATA[
    .fil1 {fill:black;fill-rule:nonzero}
    .fil0 {fill:red;fill-rule:nonzero}
   ]]>
  </style>
 </defs>
 <g id="Camada_x0020_1">
  <metadata id="CorelCorpID_0Corel-Layer"/>
  <g id="_968608848">
   <path class="fil0" d="M40 463c122,-60 477,-49 917,-36 830,25 1965,59 2375,-347l25 25c-421,417 -1565,383 -2401,357 -435,-13 -786,-24 -901,32l-15 -32z"/>
   <path class="fil1" d="M0 383c122,-60 477,-49 917,-36 830,25 1965,59 2375,-347l25 25c-421,417 -1565,383 -2401,357 -435,-13 -786,-24 -901,32l-15 -32z"/>
  </g>
 </g>
</svg>
