<?xml version="1.0" encoding="UTF-8"?>
<!DOCTYPE svg PUBLIC "-//W3C//DTD SVG 1.1//EN" "http://www.w3.org/Graphics/SVG/1.1/DTD/svg11.dtd">
<!-- Creator: CorelDRAW X6 -->
<svg xmlns="http://www.w3.org/2000/svg" xml:space="preserve" width="84.6667mm" height="85.6844mm" version="1.1" style="shape-rendering:geometricPrecision; text-rendering:geometricPrecision; image-rendering:optimizeQuality; fill-rule:evenodd; clip-rule:evenodd"
viewBox="0 0 22903 23178"
 xmlns:xlink="http://www.w3.org/1999/xlink">
 <defs>
  <style type="text/css">
   <![CDATA[
    .fil2 {fill:#FEFEFE;fill-rule:nonzero}
    .fil0 {fill:black;fill-rule:nonzero}
    .fil3 {fill:red;fill-rule:nonzero}
    .fil1 {fill:white;fill-rule:nonzero;fill-opacity:0.050980}
   ]]>
  </style>
 </defs>
 <g id="Camada_x0020_1">
  <metadata id="CorelCorpID_0Corel-Layer"/>
  <g id="_905555424">
   <path class="fil0" d="M3357 3398c2075,-2099 4937,-3398 8094,-3398 3161,0 6025,1297 8097,3395 2073,2097 3355,4995 3355,8194 0,3200 -1282,6097 -3355,8194 -2073,2097 -4936,3395 -8097,3395 -3161,0 -6025,-1298 -8096,-3395 -2073,-2097 -3355,-4995 -3355,-8194 0,-3200 1282,-6097 3355,-8194l3 3z"/>
   <path class="fil1" d="M11451 2577c-2462,0 -4688,1007 -6296,2635l0 5c-1611,1631 -2608,3884 -2608,6372 0,2488 997,4741 2608,6372 1611,1631 3837,2640 6296,2640 2459,0 4685,-1009 6297,-2640 1611,-1631 2608,-3884 2608,-6372 0,-2488 -997,-4742 -2608,-6372 -1611,-1631 -3838,-2640 -6297,-2640zm-8094 820c2075,-2099 4937,-3398 8094,-3398 3161,0 6025,1297 8097,3395 2073,2097 3355,4995 3355,8194 0,3200 -1282,6097 -3355,8194 -2073,2097 -4936,3395 -8097,3395 -3161,0 -6025,-1298 -8096,-3395 -2073,-2097 -3355,-4995 -3355,-8194 0,-3200 1282,-6097 3355,-8194l3 3z"/>
   <path class="fil2" d="M4075 17572l2416 -389 8 645 -435 36 3 226 436 32 8 652 -2424 -291 -11 -910zm1560 314c-274,35 -612,71 -1014,108 464,58 802,94 1017,107l-3 -215zm-396 -2114l7 569 -229 3c-80,1 -134,8 -162,21 -28,14 -42,37 -42,72 0,35 13,58 39,69 25,12 81,17 168,16l936 -11c70,-1 123,-11 159,-29 35,-18 53,-45 52,-80 0,-41 -19,-69 -57,-83 -37,-14 -107,-20 -209,-19l-236 3 -6 -538c159,-1 278,3 357,13 79,9 161,41 245,97 84,55 148,128 191,218 43,90 66,202 67,336 2,170 -25,306 -82,406 -57,100 -138,172 -243,215 -105,43 -253,65 -447,67l-563 7c-169,2 -296,-13 -382,-46 -86,-33 -163,-104 -232,-214 -69,-110 -104,-244 -106,-402 -2,-158 30,-292 95,-405 66,-113 149,-188 250,-226 102,-38 245,-58 432,-60zm11 -720l7 567 -133 2c-153,2 -272,-15 -355,-49 -84,-35 -158,-105 -224,-211 -65,-106 -98,-244 -100,-414 -2,-205 32,-359 103,-463 71,-105 159,-168 264,-190 105,-22 321,-35 649,-39l996 -12 7 587 -177 2c71,36 125,83 161,141 36,58 55,127 56,208 1,106 -27,203 -85,292 -58,88 -188,134 -388,137l-163 2c-149,2 -250,-20 -304,-67 -55,-46 -119,-161 -193,-346 -80,-197 -134,-303 -161,-317 -27,-13 -82,-20 -165,-19 -104,1 -171,10 -202,26 -31,16 -47,41 -46,78 0,41 14,66 41,76 27,10 95,14 206,12l208 -3zm270 -195c72,96 132,152 180,166 48,15 117,22 206,21 103,-1 169,-9 199,-22 30,-14 44,-41 44,-81 0,-38 -12,-62 -36,-74 -24,-11 -85,-16 -185,-15l-408 5zm-1503 -2167l2420 -29 7 604 -143 2c60,57 106,118 136,181 31,63 46,130 47,200 1,94 -22,175 -71,245 -48,69 -105,114 -169,134 -65,20 -170,31 -317,33l-929 11c-152,2 -260,-7 -324,-25 -64,-19 -121,-62 -170,-132 -49,-69 -74,-152 -75,-249 -1,-75 12,-144 38,-206 26,-63 66,-120 119,-171l-562 7 -7 -604zm943 592c-73,1 -121,8 -146,21 -25,13 -37,38 -37,74 0,36 12,60 35,72 23,12 73,18 151,17l972 -12c81,-1 134,-8 159,-20 25,-12 38,-35 37,-69 0,-39 -15,-65 -44,-78 -28,-12 -98,-18 -208,-17l-918 11zm501 -2195l9 782 429 -5c90,-1 147,-8 173,-21 25,-14 38,-39 38,-75 -1,-46 -18,-76 -53,-91 -35,-15 -101,-22 -200,-21l-262 3 -7 -573 146 -2c122,-1 217,6 283,20 66,15 136,50 212,106 75,56 132,128 170,214 39,86 58,196 60,327 2,128 -15,240 -51,338 -36,98 -85,175 -149,229 -64,55 -134,94 -211,116 -77,22 -189,33 -337,35l-579 7c-174,2 -311,-20 -411,-65 -101,-46 -179,-122 -233,-228 -55,-106 -83,-228 -85,-366 -2,-169 28,-310 91,-421 63,-111 147,-189 253,-235 106,-46 254,-70 447,-72l263 -3zm-316 610l-145 2c-103,1 -169,8 -199,19 -29,12 -44,34 -44,68 1,42 14,68 39,77 26,10 94,14 206,13l145 -2 -2 -177zm-721 -1391l188 8c-75,-46 -132,-101 -170,-166 -38,-64 -58,-138 -59,-220 -2,-162 71,-290 219,-384 -75,-50 -132,-107 -170,-170 -38,-63 -58,-134 -59,-212 -1,-103 23,-188 71,-256 49,-67 110,-112 182,-131 72,-20 189,-31 352,-33l1410 -17 7 586 -1293 16c-169,2 -274,9 -315,21 -40,12 -60,39 -60,81 1,43 21,70 61,82 40,12 145,17 316,15l1293 -16 7 586 -1260 15c-194,2 -311,8 -349,18 -39,10 -58,36 -58,79 0,27 11,50 32,69 21,19 45,29 75,31 30,2 92,2 188,1l1375 -17 7 586 -1984 24 -7 -597zm-465 -2381l315 -4 7 622 -315 4 -7 -622zm436 -5l1984 -24 7 622 -1984 24 -7 -622zm759 -766l7 567 -133 2c-153,2 -272,-15 -355,-49 -84,-35 -158,-105 -224,-211 -65,-106 -98,-244 -100,-414 -2,-205 32,-359 103,-463 71,-105 159,-168 264,-190 105,-22 321,-35 649,-39l996 -12 7 587 -177 2c71,36 125,83 161,141 36,58 55,127 56,208 1,106 -27,203 -85,292 -58,88 -188,134 -388,137l-163 2c-148,2 -250,-20 -304,-67 -55,-46 -119,-161 -193,-346 -80,-197 -134,-303 -161,-317 -27,-13 -82,-20 -165,-19 -104,1 -171,10 -202,26 -31,16 -47,41 -47,78 1,41 14,66 41,76 27,10 95,14 206,12l208 -2zm270 -195c72,96 132,152 180,166 48,15 117,22 206,20 103,-1 169,-9 199,-22 30,-14 44,-41 44,-81 0,-38 -12,-62 -36,-74 -24,-11 -85,-16 -185,-15l-408 5z"/>
   <path class="fil2" d="M7999 14005l-7 -610 -612 7c-33,0 -60,-26 -61,-59l-5 -456c0,-33 26,-60 59,-61l612 -7 -7 -615c0,-33 26,-60 59,-61l456 -5c33,0 60,26 61,59l7 615 609 -7c33,0 60,26 61,59l5 456c0,33 -26,60 -59,61l-609 7 7 610c0,33 -26,60 -59,61l-456 5c-33,0 -60,-26 -61,-59zm112 -672l7 610 336 -4 -7 -610c0,-33 26,-60 59,-61l609 -7 -4 -336 -609 7c-33,0 -60,-26 -61,-59l-7 -615 -336 4 7 615c0,33 -26,60 -59,61l-612 7 4 336 612 -7c33,0 60,26 61,59z"/>
   <path class="fil2" d="M13383 8898c40,11 31,41 25,71l-232 721c-5,34 -16,112 40,106 52,-7 127,-94 166,-131l118 -135c27,-19 18,-19 48,-4 15,24 21,26 0,52 -85,101 -187,213 -291,293 -55,46 -111,68 -166,67 -93,0 -141,-49 -145,-147 -5,-154 161,-608 212,-777 25,-81 112,-84 226,-114zm103 -617c99,4 150,57 156,159 -4,101 -56,153 -156,156 -103,-4 -157,-56 -159,-156 4,-101 57,-154 159,-159zm665 1585c-68,48 -138,71 -210,70 -180,-3 -269,-99 -268,-288 -3,-174 79,-347 247,-515 154,-157 328,-235 523,-235 42,1 82,6 118,12l48 13 247 -833 264 -897 26 -58c9,-16 23,-30 41,-39l40 -21 128 -64 35 -13c23,4 35,18 38,44l-2 21 -40 110 -89 262 -155 466 -160 523 -168 532 -135 449c-20,68 -91,267 -87,328 0,39 19,60 56,65 71,4 229,-161 287,-212l31 -21 13 6 12 12 2 13c-6,41 -67,113 -185,215 -94,84 -176,127 -247,127 -103,-3 -155,-67 -153,-193l16 -181c-79,98 -170,231 -272,303zm432 -856l-48 -13c-35,-8 -67,-12 -99,-12 -142,0 -268,74 -381,223 -112,149 -167,291 -164,427 -4,116 41,173 135,174 234,4 482,-568 557,-800zm1045 750c-110,115 -216,174 -320,176 -60,1 -111,-22 -154,-71 -35,-40 -52,-94 -54,-162 -1,-58 8,-113 27,-167 61,-177 154,-324 279,-440 52,-51 116,-95 189,-130 135,-71 228,-76 371,-56 22,5 34,17 35,35l-45 100c-49,-30 -103,-60 -162,-60 -93,1 -182,66 -268,193 -77,114 -208,360 -208,509 0,72 32,108 96,108 68,0 143,-49 225,-147 86,-112 158,-209 230,-332l137 -237 54 -104 19 -30c8,-10 24,-15 47,-15l75 0 23 2 16 8 8 10c0,20 -3,35 -8,48l-21 54 -103 288 -84 241c-14,55 -77,207 15,214 90,-5 214,-140 288,-203 20,10 16,7 23,29 -4,15 -14,31 -29,48l-127 133c-87,91 -174,136 -259,135 -101,4 -151,-49 -150,-160 0,-48 8,-106 25,-172l31 -116 -223 272z"/>
   <path class="fil2" d="M13626 12352c9,-28 18,-48 29,-61 34,-27 134,-39 179,-47 32,6 37,10 47,38 0,15 -8,49 -25,101l-179 597 241 0 38 14 -4 35 -12 31c-7,9 -14,16 -21,18l-37 4 -229 0 -203 636c-23,80 -91,274 -87,349 1,39 18,57 50,56 95,3 230,-141 301,-206 18,-16 33,-25 45,-25 15,5 15,6 27,16 13,31 11,30 -4,60 -81,117 -307,295 -456,295 -116,-3 -173,-63 -170,-181 0,-54 10,-118 29,-193l44 -162 199 -646 -118 0 -31 -2 -11 -16 11 -33 14 -33c3,-6 9,-10 17,-14l25 -4 118 0 174 -627zm772 874c21,6 31,18 31,40l-214 664 -31 135c4,42 20,61 46,58 56,-7 125,-92 166,-131l141 -152 26 13 14 23c0,8 -5,18 -14,29 -42,50 -86,99 -133,147 -78,82 -204,215 -324,212 -93,0 -141,-49 -145,-147 -3,-103 51,-250 81,-351l131 -426c6,-19 14,-35 27,-48 33,-31 151,-54 199,-67zm103 -617c99,4 150,57 156,159 -4,101 -56,153 -156,156 -103,-4 -157,-56 -159,-156 4,-101 57,-154 159,-159zm607 617l18 11 6 21 -25 89c-86,218 -197,504 -216,731 1,60 27,93 77,100 138,-7 286,-198 444,-573 15,-35 138,-339 139,-340 8,-8 21,-15 38,-19l108 -18c25,3 37,16 35,42 -41,150 -117,289 -201,419 -50,81 -103,157 -158,231 -179,235 -330,351 -453,347 -128,-1 -195,-69 -199,-203 0,-140 50,-301 83,-438l116 -332c8,-7 21,-14 38,-21l150 -44zm1222 862c-110,115 -216,174 -320,176 -60,1 -111,-22 -154,-71 -35,-40 -52,-94 -54,-162 -1,-58 8,-113 27,-167 61,-177 154,-324 279,-440 52,-51 116,-95 189,-130 147,-77 215,-61 371,-56 22,5 34,17 35,35l-45 100c-49,-30 -103,-60 -162,-60 -93,1 -182,66 -268,194 -79,118 -208,363 -208,509 0,72 32,108 96,108 131,0 249,-179 324,-276 127,-171 238,-385 341,-575 20,-26 135,-18 162,-4l8 10c0,37 -16,68 -29,102l-103 288 -84 241 -33 110 -4 33c0,45 17,68 52,71 90,-5 214,-140 288,-203l16 9 6 21c-4,15 -14,31 -29,47l-127 133c-87,91 -174,136 -259,135 -101,4 -151,-49 -150,-160 0,-48 9,-106 26,-172l31 -116 -223 272z"/>
   <path class="fil2" d="M17661 3558c-1158,374 -2504,1406 -3653,2618 -1225,1292 -2216,2778 -2507,3879 -34,129 -115,174 -242,141 -130,-34 -375,-352 -751,-840 -1049,-1359 -3189,-4132 -5402,-5085l143 -332c2298,989 4477,3812 5545,5196 189,245 341,441 438,565 380,-1123 1346,-2540 2516,-3774 1185,-1250 2585,-2319 3804,-2712l110 343z"/>
   <path class="fil3" d="M17829 4058c-876,260 -2376,1336 -3668,2727 -1026,1105 -1916,2405 -2249,3646l-24 90 -93 -1 -897 -7 -54 0 -35 -40c-230,-261 -509,-617 -829,-1025 -1186,-1514 -2944,-3756 -5028,-4688l98 -219c2139,956 3918,3227 5119,4760 298,380 560,714 785,973l750 6c361,-1256 1255,-2555 2280,-3658 1319,-1420 2865,-2523 3777,-2794l68 231z"/>
   <path class="fil3" d="M12315 15855c-442,-316 -2900,706 -2907,709l-297 137 137 -297c260,-564 692,-1872 1057,-2975 339,-1025 621,-1881 762,-1879 191,3 353,-5 470,-10 195,-10 307,-15 328,107 185,797 857,3819 1047,4620 1007,-1235 3144,-1354 5910,-1293l127 0 0 240 -127 0c-2111,-84 -4914,6 -5869,1385l-152 237 -66 -274c-2,-10 -988,-4781 -1091,-4780l-520 8c-37,-1 -281,780 -589,1714 -314,952 -679,2056 -945,2715 686,-298 2421,-878 2865,-561l-139 196z"/>
   <path class="fil2" d="M12280 16385c-418,-299 -3690,1016 -3700,1020l-421 169 190 -412c247,-534 799,-2085 1302,-3495 522,-1465 1070,-2781 1070,-2781l1383 -38c39,-1 58,101 67,130 143,458 819,3300 1021,4220 1171,-830 4038,-829 5618,-828l138 0 0 360 -138 0c-1727,-1 -4580,-188 -5832,1179l-74 -340c-2,-11 -851,-3832 -1017,-4364l-944 40c-74,-1 -475,1205 -952,2541 -413,1157 -859,2409 -1147,3129 927,-351 3185,-1152 3644,-824l-209 294z"/>
   <path class="fil2" d="M8647 17729c-55,221 -181,718 -340,1224 -162,517 -361,1045 -562,1314l-290 -216c173,-231 354,-720 507,-1205 156,-496 279,-986 334,-1205l350 88z"/>
   <path class="fil3" d="M9131 17566c-69,276 -284,1074 -527,1757 -149,418 -309,795 -457,993l-193 -144c132,-177 282,-531 423,-929 240,-674 453,-1463 521,-1736l234 58z"/>
   <path class="fil2" d="M10967 5558c383,0 729,155 980,406 251,251 406,597 406,980 0,383 -155,729 -406,980 -251,251 -597,406 -980,406 -383,0 -729,-155 -980,-406 -251,-251 -406,-597 -406,-980 0,-383 155,-729 406,-980 251,-251 598,-406 980,-406zm810 577c-207,-207 -494,-335 -810,-335 -316,0 -603,128 -810,335 -207,207 -335,494 -335,810 0,316 128,603 335,810 207,207 494,335 810,335 316,0 603,-128 810,-335 207,-207 335,-494 335,-810 0,-316 -128,-603 -335,-810z"/>
   <path class="fil2" d="M10967 5902c288,0 549,117 737,305 189,189 305,449 305,737 0,288 -117,549 -305,737 -189,189 -449,305 -737,305 -288,0 -549,-117 -737,-305 -189,-189 -305,-449 -305,-737 0,-576 467,-1043 1043,-1043zm652 391c-167,-167 -397,-270 -652,-270 -509,0 -922,413 -922,922 0,255 103,485 270,652 167,167 397,270 652,270 255,0 485,-103 652,-270 167,-167 270,-397 270,-652 0,-255 -103,-485 -270,-652z"/>
  </g>
 </g>
</svg>
