<?xml version="1.0" encoding="UTF-8"?>
<!DOCTYPE svg PUBLIC "-//W3C//DTD SVG 1.1//EN" "http://www.w3.org/Graphics/SVG/1.1/DTD/svg11.dtd">
<!-- Creator: CorelDRAW X6 -->
<svg xmlns="http://www.w3.org/2000/svg" xml:space="preserve" width="88.9274mm" height="102.049mm" version="1.1" style="shape-rendering:geometricPrecision; text-rendering:geometricPrecision; image-rendering:optimizeQuality; fill-rule:evenodd; clip-rule:evenodd"
viewBox="0 0 28913 33180"
 xmlns:xlink="http://www.w3.org/1999/xlink">
 <defs>
  <style type="text/css">
   <![CDATA[
    .fil0 {fill:black;fill-rule:nonzero}
    .fil1 {fill:red;fill-rule:nonzero}
   ]]>
  </style>
 </defs>
 <g id="Layer_x0020_1">
  <metadata id="CorelCorpID_0Corel-Layer"/>
  <g id="_908297392">
   <path class="fil0" d="M224 27808l4660 -751 15 1243 -839 70 5 436 840 62 15 1257 -4676 -561 -21 -1756zm3010 607c-528,68 -1181,137 -1956,209 894,112 1548,181 1961,207l-5 -415zm-765 -4077l13 1098 -441 5c-154,2 -258,16 -313,41 -55,26 -82,72 -81,140 1,67 26,112 74,134 49,23 156,34 323,32l1805 -22c136,-2 238,-21 306,-56 67,-35 101,-87 100,-154 -1,-79 -37,-132 -109,-159 -71,-27 -206,-39 -404,-37l-456 5 -13 -1038c306,-2 536,6 688,25 153,18 311,80 473,187 162,106 284,247 368,421 84,174 127,389 130,647 4,329 -49,590 -159,784 -110,193 -266,332 -469,414 -202,82 -489,125 -862,129l-1087 13c-326,4 -571,-26 -737,-89 -166,-64 -314,-201 -447,-413 -132,-212 -201,-471 -204,-776 -4,-304 57,-564 184,-781 126,-217 287,-362 482,-436 196,-73 473,-112 832,-116zm21 -1388l13 1093 -257 3c-295,4 -524,-28 -685,-94 -161,-67 -306,-202 -431,-406 -126,-204 -190,-470 -194,-799 -5,-395 62,-692 198,-893 137,-202 307,-325 509,-367 202,-43 619,-67 1252,-75l1920 -23 14 1133 -341 4c138,69 241,161 310,272 70,111 105,245 107,401 2,204 -52,391 -165,563 -112,171 -362,259 -748,264l-315 4c-286,3 -482,-39 -586,-129 -105,-89 -229,-311 -371,-668 -155,-380 -258,-584 -311,-611 -52,-26 -158,-38 -317,-37 -200,2 -331,20 -390,50 -61,30 -91,80 -90,150 1,79 27,128 79,146 51,19 183,26 397,24l401 -5zm520 -375c139,185 255,292 347,321 93,28 226,42 398,40 198,-2 326,-17 383,-43 58,-26 86,-79 85,-156 -1,-73 -24,-120 -70,-142 -46,-21 -165,-31 -357,-29l-787 9zm-2899 -4180l4668 -56 14 1164 -277 3c116,111 205,227 263,349 60,122 90,251 91,385 2,181 -43,338 -137,472 -93,134 -202,220 -327,259 -125,39 -328,60 -611,63l-1791 22c-293,4 -502,-13 -626,-49 -123,-36 -233,-120 -328,-254 -95,-134 -143,-294 -146,-480 -2,-145 22,-277 73,-398 51,-121 127,-231 229,-331l-1084 13 -14 -1164zm1819 1143c-141,2 -234,15 -282,40 -48,24 -72,73 -71,144 1,69 23,116 67,139 44,23 140,35 291,33l1874 -23c156,-2 258,-15 307,-39 49,-23 73,-68 72,-133 -1,-75 -29,-125 -84,-150 -54,-24 -189,-35 -402,-33l-1771 21zm967 -4234l18 1509 828 -10c173,-2 284,-16 334,-41 49,-26 74,-75 73,-146 -1,-89 -35,-147 -102,-176 -67,-29 -195,-43 -385,-41l-505 6 -13 -1104 282 -3c236,-3 418,11 546,39 127,28 263,96 409,204 145,108 255,246 329,413 75,166 113,378 116,632 3,246 -30,463 -98,653 -69,189 -164,337 -287,443 -123,107 -259,181 -407,223 -149,42 -365,64 -650,68l-1116 13c-335,4 -599,-38 -793,-125 -194,-88 -344,-235 -449,-440 -106,-204 -160,-440 -163,-707 -4,-327 55,-597 176,-811 121,-214 284,-365 488,-453 204,-88 491,-135 862,-139l508 -6zm-609 1176l-280 3c-198,2 -326,15 -383,36 -57,22 -86,66 -85,131 1,81 26,131 76,149 49,19 181,27 397,25l280 -3 -4 -341zm-1391 -2682l363 16c-145,-89 -254,-196 -328,-320 -73,-123 -111,-265 -113,-425 -4,-312 137,-559 423,-740 -145,-97 -254,-206 -328,-328 -73,-122 -111,-259 -113,-408 -2,-198 44,-363 138,-494 95,-130 212,-215 350,-253 139,-38 365,-60 678,-63l2719 -33 14 1131 -2494 30c-327,4 -529,17 -607,40 -78,24 -116,75 -115,156 1,83 41,135 118,159 77,23 280,32 609,28l2494 -30 14 1131 -2431 29c-375,4 -599,16 -674,36 -75,19 -112,69 -111,152 1,52 21,96 62,132 40,36 87,56 144,59 57,3 177,4 362,2l2653 -32 14 1130 -3827 46 -14 -1151zm-897 -4592l608 -7 14 1200 -608 7 -14 -1200zm842 -10l3827 -46 14 1200 -3827 46 -14 -1200zm1465 -1477l13 1093 -257 3c-295,4 -524,-28 -685,-94 -161,-67 -306,-202 -431,-406 -126,-204 -190,-470 -194,-799 -5,-395 62,-692 198,-893 137,-202 307,-325 509,-367 202,-43 619,-67 1252,-75l1920 -23 14 1133 -341 4c138,69 241,161 310,272 70,111 105,245 107,401 2,204 -52,391 -164,563 -112,171 -362,259 -748,264l-315 4c-286,3 -482,-39 -586,-129 -105,-89 -229,-311 -371,-668 -155,-380 -258,-584 -311,-611 -53,-26 -158,-38 -317,-37 -200,2 -331,20 -390,50 -61,30 -91,80 -90,150 1,79 27,128 79,146 51,19 183,26 397,24l401 -5zm520 -375c139,185 255,292 347,321 93,28 226,42 398,40 198,-2 326,-17 383,-43 58,-26 86,-79 85,-156 -1,-73 -24,-120 -70,-142 -46,-21 -165,-32 -357,-29l-787 9z"/>
   <path class="fil0" d="M7695 20928l-13 -1079 -1083 13c-118,1 -215,-93 -216,-211l-11 -880c-1,-118 93,-215 211,-216l1083 -13 -13 -1088c-1,-118 93,-215 211,-216l880 -11c118,-1 215,93 216,211l13 1088 1077 -13c118,-1 215,93 216,211l11 880c1,118 -93,215 -211,216l-1077 13 13 1079c1,118 -93,215 -211,216l-880 11c-118,1 -215,-93 -216,-211zm412 -1298l13 1079 452 -5 -13 -1079c-1,-118 93,-215 211,-216l1077 -13 -5 -452 -1077 13c-118,1 -215,-93 -216,-211l-13 -1088 -452 5 13 1088c1,118 -93,215 -211,216l-1083 13 5 452 1083 -13c118,-1 215,93 216,211z"/>
   <path class="fil0" d="M18094 11099l83 -21c40,11 60,36 60,77l-12 60 -401 1221 -48 170 -12 92c8,81 38,118 89,112l31 -4c30,-14 62,-34 97,-64l191 -185 149 -164 79 -97 44 -31 49 25 27 44c0,16 -10,34 -27,56 -81,96 -167,191 -257,284 -109,115 -211,208 -305,280 -107,89 -213,131 -320,128 -179,0 -272,-94 -280,-284 -3,-86 12,-183 44,-293l112 -384 253 -822c11,-37 27,-68 52,-92 23,-22 56,-40 96,-52l205 -56zm283 -1210c190,8 290,111 301,308 -8,196 -108,295 -301,301 -200,-8 -302,-108 -308,-301 8,-194 111,-297 308,-308zm1502 2852c-197,230 -406,343 -625,340 -347,-5 -520,-191 -517,-556 -5,-336 153,-669 477,-994 297,-302 633,-453 1009,-453 81,3 157,11 228,23l93 25 476 -1606 509 -1731 49 -112c18,-31 45,-57 79,-75l77 -41 247 -123 68 -25c44,8 67,36 72,85l-4 40 -77 212 -172 504 -299 898 -309 1009 -324 1025 -261 865 -144 485c-19,53 -27,103 -25,148 0,75 37,116 108,124 52,3 104,-18 157,-60l249 -208 148 -141 60 -40 25 12 23 23 4 25c-11,79 -130,219 -357,416 -182,163 -340,245 -477,245 -200,-5 -298,-130 -295,-372l7 -156 25 -193 -305 380zm614 -1446l-93 -25c-67,-15 -130,-23 -191,-23 -273,0 -517,144 -734,431 -216,287 -321,562 -316,823 -8,224 79,336 260,336 105,0 220,-63 345,-189 78,-71 152,-156 221,-252 157,-209 294,-476 411,-801l97 -301zm2248 1174l-232 272c-212,221 -417,335 -618,340 -115,3 -213,-42 -297,-137 -67,-77 -101,-180 -104,-312 -3,-112 15,-219 52,-321 118,-342 297,-625 537,-849 101,-98 223,-183 365,-252 112,-59 228,-100 349,-120l191 -12 176 25c42,10 66,33 68,67l-20 60 -67 133 -64 -40c-97,-51 -179,-77 -249,-77 -179,3 -351,127 -517,373 -137,202 -238,396 -305,581l-67 208c-19,67 -29,131 -29,193 0,138 62,208 185,208 131,0 275,-94 433,-284l191 -249c75,-101 160,-232 253,-392l264 -457 104 -201 37 -59c15,-19 46,-29 92,-29l145 0 44 4 31 16 16 19c0,38 -5,68 -16,93l-40 104 -200 556 -161 465 -64 212 -7 64c0,86 33,131 100,137 104,-5 223,-79 355,-220l101 -100 56 -48 44 -25 31 16 12 40c-8,29 -27,60 -56,92l-245 257c-168,176 -335,262 -500,260 -194,8 -291,-94 -288,-309 0,-93 16,-204 49,-332l60 -224 -197 253z"/>
   <path class="fil0" d="M26467 896c-2212,715 -4791,2694 -6993,5016 -2349,2477 -4250,5324 -4806,7429 -87,330 -294,445 -616,360 -291,-77 -774,-703 -1515,-1664 -2016,-2613 -6130,-7944 -10371,-9769l373 -867c4462,1920 8678,7383 10744,10060 294,381 531,696 701,925 783,-2150 2611,-4805 4809,-7123 2298,-2424 5018,-4498 7388,-5264l288 896z"/>
   <path class="fil1" d="M26790 1870c-1670,496 -4539,2556 -7016,5222 -1967,2117 -3671,4605 -4306,6977l-73 272 -282 -2 -1730 -14 -164 -1 -107 -121c-441,-501 -982,-1191 -1603,-1983 -2280,-2909 -5657,-7218 -9648,-9003l296 -664c4155,1858 7599,6253 9924,9220 555,708 1044,1332 1471,1827l1287 10c721,-2414 2436,-4899 4400,-7013 2560,-2755 5566,-4896 7344,-5425l205 698z"/>
   <path class="fil1" d="M15795 24536c-795,-569 -5114,1281 -5126,1286l-869 370 396 -858 3536 -9040c412,7 825,-13 921,-23 378,-40 434,-45 495,320l2057 8232c2241,-2047 8389,-2044 11464,-2042l246 0 0 727 -246 0c-3201,-2 -9867,-5 -11325,2262l-436 679 -221 -777c-2,-6 -199,-699 -478,-1717l-413 580zm-4589 287c1392,-532 4144,-1465 4996,-889 -541,-1971 -1384,-5139 -1718,-6918 -86,5 -182,7 -280,7 -151,-3 -702,1614 -1372,3459 -552,1522 -1158,3191 -1625,4342z"/>
   <path class="fil0" d="M15979 25620c-751,-537 -7001,1974 -7019,1981l-1099 440 496 -1074c460,-996 1457,-3675 2391,-6183l2305 -5402c129,-302 2891,-207 2951,-15l1858 7576c1215,-668 3039,-1025 4946,-1214 2214,-219 4523,-220 6105,-220l0 944c-1575,0 -3873,0 -6013,212 -2173,215 -3983,485 -5574,1752l-2152 -8319c125,43 -1511,45 -1511,45l-2034 4969c-710,1906 -1456,3910 -1980,5215 1938,-721 5989,-2109 6876,-1475l-546 767z"/>
   <path class="fil0" d="M9203 28151c-107,428 -349,1389 -658,2371 -318,1012 -709,2049 -1109,2584l-825 -616c320,-428 663,-1353 952,-2274 299,-952 537,-1895 641,-2314l998 250z"/>
   <path class="fil1" d="M10186 27829c-134,534 -550,2079 -1021,3401 -291,817 -607,1556 -901,1950l-584 -436c246,-329 529,-1001 798,-1756 461,-1295 870,-2811 1001,-3336l707 177z"/>
   <path class="fil0" d="M13517 4548c763,0 1454,309 1954,809 500,500 809,1191 809,1954 0,763 -309,1454 -809,1954 -500,500 -1191,809 -1954,809 -763,0 -1454,-309 -1954,-809 -500,-500 -809,-1191 -809,-1954 0,-763 309,-1454 809,-1954 500,-500 1191,-809 1954,-809zm1499 1265c-384,-384 -913,-621 -1499,-621 -585,0 -1115,237 -1499,621 -384,384 -621,913 -621,1499 0,585 237,1115 621,1499 384,384 913,621 1499,621 585,0 1115,-237 1499,-621 384,-384 621,-913 621,-1499 0,-585 -237,-1115 -621,-1499z"/>
   <path class="fil0" d="M13517 5266c565,0 1076,229 1446,599 370,370 599,881 599,1446 0,565 -229,1076 -599,1446 -370,370 -881,599 -1446,599 -565,0 -1076,-229 -1446,-599 -370,-370 -599,-881 -599,-1446 0,-565 229,-1076 599,-1446 370,-370 881,-599 1446,-599zm1234 812c-316,-316 -752,-511 -1234,-511 -482,0 -918,195 -1234,511 -316,316 -511,752 -511,1234 0,482 195,918 511,1234 316,316 752,511 1234,511 482,0 918,-195 1234,-511 316,-316 511,-752 511,-1234 0,-482 -195,-918 -511,-1234z"/>
   <path class="fil0" d="M18646 17739c16,-53 34,-93 56,-118 19,-15 51,-30 96,-44l149 -36 100 -12c31,5 57,16 77,31l15 41c0,29 -15,94 -48,196l-345 1151 465 0 72 27 -8 68 -23 60c-14,18 -27,30 -41,36l-71 8 -442 0 -392 1226 -124 436c-31,96 -46,175 -44,237 3,75 34,111 96,108 92,3 208,-59 349,-185l232 -212c34,-31 64,-48 88,-48l25 8 27 23 16 41 0 27 -25 48c-37,53 -86,105 -148,156l-224 197c-174,144 -343,216 -509,216 -224,-5 -334,-122 -328,-349 0,-104 19,-228 56,-372l85 -313 384 -1245 -228 0 -60 -4 -21 -31 21 -64 27 -64c5,-11 16,-19 33,-27l48 -8 228 0 336 -1210zm1405 1706l83 -21c40,11 60,36 60,77l-12 60 -401 1221 -48 170 -12 92c8,81 38,118 89,112l31 -4c30,-14 62,-34 97,-64l191 -185 149 -164 79 -97 44 -31 49 25 27 44c0,16 -10,34 -27,56 -81,96 -167,191 -257,284 -109,115 -211,208 -305,280 -107,89 -213,131 -320,128 -179,0 -272,-94 -280,-284 -3,-86 12,-183 44,-293l112 -384 253 -822c11,-37 27,-68 52,-92 23,-22 56,-40 96,-52l205 -56zm283 -1210c190,8 290,111 301,308 -8,196 -108,295 -301,301 -200,-8 -302,-108 -308,-301 8,-194 111,-297 308,-308zm1058 1218l112 -29 36 21 12 40 -12 64 -36 108 -124 316 -139 429 -112 380 -29 141 -12 144c3,115 52,179 149,193 267,-14 552,-381 857,-1106l148 -349 85 -224c8,-40 19,-68 36,-83 16,-16 40,-29 72,-37l168 -27 40 -8c48,5 71,31 68,81l-8 52 -27 79c-86,219 -204,446 -353,677 -97,156 -198,303 -305,446 -345,454 -636,677 -874,669 -247,-3 -376,-134 -384,-392 0,-104 15,-226 44,-365l116 -480 156 -502 33 -83 36 -56c16,-14 41,-27 72,-40l176 -56zm2701 1362l-232 272c-212,221 -417,335 -618,340 -115,3 -213,-42 -297,-137 -67,-77 -101,-180 -104,-312 -3,-112 15,-219 52,-321 118,-342 297,-625 537,-849 101,-98 223,-183 365,-252 112,-59 228,-100 349,-120l191 -12 176 25c42,10 66,33 68,67l-21 60 -67 133 -64 -40c-97,-51 -179,-77 -249,-77 -179,3 -351,127 -517,373 -137,202 -238,396 -305,581l-67 208c-19,67 -29,131 -29,193 0,138 62,208 185,208 131,0 275,-94 433,-284l191 -249c75,-101 160,-232 253,-392l264 -457 104 -201 37 -59c15,-19 46,-29 92,-29l145 0 44 4 31 16 16 19c0,38 -5,68 -16,93l-40 104 -200 556 -161 465 -64 212 -7 64c0,86 33,131 100,137 104,-5 223,-79 355,-220l101 -100 56 -48 44 -25 31 16 12 40c-8,29 -27,60 -56,92l-245 257c-168,176 -335,263 -500,260 -194,8 -291,-94 -288,-309 0,-93 16,-204 49,-332l60 -224 -197 253z"/>
  </g>
 </g>
</svg>
