<?xml version="1.0" encoding="UTF-8"?>
<!DOCTYPE svg PUBLIC "-//W3C//DTD SVG 1.1//EN" "http://www.w3.org/Graphics/SVG/1.1/DTD/svg11.dtd">
<!-- Creator: CorelDRAW X6 -->
<svg xmlns="http://www.w3.org/2000/svg" xml:space="preserve" width="75.7434mm" height="99.9997mm" version="1.1" style="shape-rendering:geometricPrecision; text-rendering:geometricPrecision; image-rendering:optimizeQuality; fill-rule:evenodd; clip-rule:evenodd"
viewBox="0 0 2347 3098"
 xmlns:xlink="http://www.w3.org/1999/xlink">
 <defs>
  <style type="text/css">
   <![CDATA[
    .str2 {stroke:red;stroke-width:8.71882}
    .str1 {stroke:red;stroke-width:9.79085}
    .str3 {stroke:white;stroke-width:19.7645;stroke-linecap:round;stroke-linejoin:round}
    .str0 {stroke:white;stroke-width:31.5197;stroke-linecap:round;stroke-linejoin:round}
    .fil2 {fill:none}
    .fil3 {fill:black}
    .fil0 {fill:red}
    .fil1 {fill:white}
    .fil5 {fill:black;fill-rule:nonzero}
    .fil4 {fill:red;fill-rule:nonzero}
   ]]>
  </style>
    <clipPath id="id0">
     <path d="M769 851l818 2247 223 -433 450 188 -729 -2002 -762 0z"/>
    </clipPath>
    <clipPath id="id1">
     <path d="M1578 851l-818 2247 -223 -433 -450 188 729 -2002 762 0z"/>
    </clipPath>
 </defs>
 <g id="Layer_x0020_1">
  <metadata id="CorelCorpID_0Corel-Layer"/>
  <g id="_792803728">
   <polygon class="fil0" points="769,851 1587,3098 1810,2665 2260,2853 1531,851 "/>
   <g style="clip-path:url(#id0)">
    <g>
     <rect class="fil1" transform="matrix(0.231964 0.637317 -0.0398312 0.0144974 596.136 -61.587)" width="4878" height="1056"/>
     <rect class="fil1" transform="matrix(0.231964 0.637317 -0.0398312 0.0144974 1029.77 -219.415)" width="4878" height="1056"/>
    </g>
   </g>
   <polygon class="fil2" points="769,851 1587,3098 1810,2665 2260,2853 1531,851 "/>
   <polygon class="fil0" points="1578,851 760,3098 537,2665 87,2853 816,851 "/>
   <g style="clip-path:url(#id1)">
    <g>
     <rect class="fil1" transform="matrix(-0.231964 0.637317 0.0398312 0.0144974 1750.67 -61.587)" width="4878" height="1056"/>
     <rect class="fil1" transform="matrix(-0.231964 0.637317 0.0398312 0.0144974 1317.04 -219.415)" width="4878" height="1056"/>
    </g>
   </g>
   <polygon class="fil2" points="1578,851 760,3098 537,2665 87,2853 816,851 "/>
   <path class="fil3" d="M1173 0c85,0 147,91 230,109 81,17 173,-41 249,-6 77,35 98,143 166,194 67,49 175,34 230,96 57,64 31,171 74,245 42,72 146,102 171,182 26,81 -41,169 -32,254 9,83 92,153 83,236 -9,85 -106,138 -132,219 -26,79 22,178 -20,250 -43,74 -152,83 -209,146 -56,62 -52,171 -119,220 -69,50 -173,13 -250,48 -76,34 -117,135 -198,152 -83,18 -163,-58 -248,-58 -83,0 -161,76 -242,58 -83,-18 -125,-120 -203,-155 -76,-34 -178,3 -245,-46 -69,-50 -66,-161 -123,-224 -56,-62 -164,-70 -205,-142 -42,-74 5,-174 -21,-255 -26,-79 -122,-131 -130,-214 -9,-85 75,-157 84,-242 9,-83 -58,-169 -32,-248 26,-81 132,-113 174,-187 42,-72 15,-178 71,-240 57,-63 166,-49 235,-99 67,-49 86,-157 162,-190 78,-34 172,23 255,5 81,-17 142,-108 225,-108z"/>
   <path class="fil0 str0" d="M1173 182c547,0 991,444 991,991 0,547 -444,991 -991,991 -547,0 -991,-444 -991,-991 0,-547 444,-991 991,-991z"/>
   <path class="fil1" d="M1173 279c494,0 894,400 894,894 0,494 -400,894 -894,894 -494,0 -894,-400 -894,-894 0,-494 400,-894 894,-894z"/>
   <path class="fil4 str1" d="M703 910l-45 49 -14 11 -21 -12 -13 -14 -2 -6 9 -17 49 -60 100 -121 97 -133c11,-14 22,-21 34,-22l20 1 27 4 9 12 -9 32 -289 932c-3,9 -7,17 -13,24 -7,8 -17,14 -28,15l-54 10 -43 7 -10 -4 -3 -7 6 -18 7 -24 261 -742 -74 83zm500 108l0 -1 32 -8 52 -13c24,-4 51,-7 79,-8 81,0 145,20 193,58 56,45 85,104 86,179 1,89 -35,170 -107,241 -67,65 -144,111 -231,136 -48,14 -105,21 -172,21 -119,1 -217,-17 -293,-56l-20 -15 -4 -10 4 -16 10 -35 6 -12 7 -7 7 -2 15 6c92,60 182,90 269,91 94,0 179,-38 258,-114 37,-35 67,-76 93,-122 25,-46 37,-94 37,-144 -1,-42 -16,-77 -46,-103 -31,-26 -67,-40 -109,-41 -63,1 -136,25 -219,73 -8,5 -14,7 -20,7 -11,1 -17,-4 -17,-16l4 -15 11 -34 148 -417 11 -24c6,-8 14,-14 24,-16l29 0 151 0 154 0c17,0 27,1 32,3l10 8 3 12 -3 21 -19 67c-1,6 -4,10 -9,13 -5,4 -10,6 -15,7l-28 0 -304 -18 0 0 -108 304z"/>
   <path class="fil4 str2" d="M871 1834l-21 24c-19,20 -38,30 -56,31 -10,0 -19,-4 -27,-12 -6,-7 -9,-16 -9,-28 0,-10 1,-20 5,-29 11,-31 27,-56 48,-76 9,-9 20,-17 33,-23 10,-5 21,-9 31,-11l17 -1 16 2c4,1 6,3 6,6l-2 5 -6 12 -6 -4c-9,-5 -16,-7 -22,-7 -16,0 -32,11 -47,34 -12,18 -22,36 -27,52l-6 19c-2,6 -3,12 -3,17 0,12 6,19 17,19 12,0 25,-8 39,-26l17 -22c7,-9 14,-21 23,-35l24 -41 9 -18 3 -5c1,-2 4,-3 8,-3l13 0 4 0 3 1 1 2c0,3 0,6 -1,8l-4 9 -18 50 -15 42 -6 19 -1 6c0,8 3,12 9,12 9,0 20,-7 32,-20l9 -9 5 -4 4 -2 3 1 1 4c-1,3 -2,5 -5,8l-22 23c-15,16 -30,24 -45,23 -18,1 -26,-8 -26,-28 0,-8 1,-18 4,-30l5 -20 -18 23zm207 -52l26 -36c18,-24 34,-36 49,-37 9,0 17,4 24,10 7,7 10,14 9,23 0,10 -2,20 -6,31l-11 29 -18 46 -2 8c0,6 3,9 9,9 3,0 7,-2 12,-5l18 -14 13 -12 7 -7 4 -3 4 2 2 2 0 2c0,6 -11,18 -34,36 -20,16 -34,24 -43,24 -18,0 -27,-8 -27,-24 0,-9 2,-20 7,-33l11 -32 11 -32 8 -21c1,-4 2,-8 2,-12 0,-7 -3,-10 -10,-12 -7,0 -14,5 -22,16l-18 24 -30 43c-9,13 -17,27 -25,43 -6,12 -11,21 -15,28 -2,3 -4,5 -6,5l-7 1 -18 0 -3 -3 1 -7 1 -5 39 -139 2 -7c1,-2 2,-4 4,-5l6 -2 21 -5 5 -1 2 1 1 2 -1 8 -28 94 23 -33zm153 54c0,-30 13,-58 40,-85 28,-28 56,-42 84,-42 16,0 29,5 38,15 11,11 17,24 16,38 0,23 -8,45 -24,69 -14,21 -33,37 -54,48 -14,8 -29,11 -44,11 -16,0 -29,-5 -40,-15 -11,-10 -17,-23 -16,-38zm38 13c0,5 1,9 3,14l4 6 5 4c2,1 5,2 8,1 30,0 55,-28 76,-86 5,-15 8,-28 8,-38 0,-15 -8,-24 -24,-25 -19,0 -37,17 -56,51 -15,27 -23,52 -23,74zm197 -54l-8 8c-2,2 -4,4 -5,4l-4 -2c-1,-1 -2,-2 -1,-4l1 -4 6 -7 53 -57 7 -8 4 -8 5 -13c6,-17 16,-26 30,-26 10,0 15,5 15,14l-1 6c-2,3 -4,6 -7,9l-8 8 -12 12 8 14 8 16c4,9 7,18 9,28 2,10 4,19 4,27 0,9 -2,18 -5,27 -11,35 -39,52 -81,52 -13,0 -24,-2 -33,-7 -14,-7 -20,-15 -20,-25l1 -4c3,-7 9,-10 17,-10 10,0 19,5 28,14l10 10c4,4 9,6 16,6 17,-1 26,-13 29,-37l1 -16c0,-13 -1,-25 -3,-38l-6 -27 -4 -14 0 0 -51 53z"/>
   <path class="fil5 str3" d="M739 851l-45 49 -14 11 -21 -12 -13 -14 -2 -6 9 -17 49 -60 100 -121 97 -133c11,-14 22,-21 34,-22l20 1 27 4 9 12 -9 32 -289 932c-3,9 -7,17 -13,24 -7,8 -17,14 -28,15l-54 10 -43 7 -10 -4 -3 -7 6 -18 7 -24 261 -742 -74 83zm500 108l0 -1 32 -8 52 -13c24,-4 51,-7 79,-8 81,0 145,20 193,58 56,45 85,104 86,179 1,89 -35,170 -107,241 -67,65 -144,111 -231,136 -48,14 -105,21 -172,21 -119,1 -217,-17 -293,-56l-20 -15 -4 -10 4 -16 10 -35 6 -12 7 -7 7 -2 15 6c92,60 182,90 269,91 94,0 179,-38 258,-114 37,-35 67,-76 93,-122 25,-46 37,-94 37,-144 -1,-42 -16,-77 -46,-103 -31,-26 -67,-40 -109,-41 -63,1 -136,25 -219,73 -8,5 -14,7 -20,7 -11,1 -17,-4 -17,-16l4 -15 11 -34 148 -417 11 -24c6,-8 14,-14 24,-16l29 0 151 0 154 0c17,0 27,1 32,3l10 8 3 12 -3 21 -19 67c-1,6 -4,10 -9,13 -5,4 -10,6 -15,7l-28 0 -304 -18 0 0 -108 304z"/>
  </g>
 </g>
</svg>
