<?xml version="1.0" encoding="UTF-8" standalone="no"?>
<!-- Created with Inkscape (http://www.inkscape.org/) -->

<svg
   xmlns:dc="http://purl.org/dc/elements/1.1/"
   xmlns:cc="http://creativecommons.org/ns#"
   xmlns:rdf="http://www.w3.org/1999/02/22-rdf-syntax-ns#"
   xmlns:svg="http://www.w3.org/2000/svg"
   xmlns="http://www.w3.org/2000/svg"
   xmlns:sodipodi="http://sodipodi.sourceforge.net/DTD/sodipodi-0.dtd"
   xmlns:inkscape="http://www.inkscape.org/namespaces/inkscape"
   width="210mm"
   height="297mm"
   id="svg2"
   version="1.1"
   inkscape:version="0.48.4 r9939"
   sodipodi:docname="Novo documento 1">
  <defs
     id="defs4" />
  <sodipodi:namedview
     id="base"
     pagecolor="#ffffff"
     bordercolor="#666666"
     borderopacity="1.0"
     inkscape:pageopacity="0.0"
     inkscape:pageshadow="2"
     inkscape:zoom="2.8"
     inkscape:cx="259.90437"
     inkscape:cy="995.14867"
     inkscape:document-units="px"
     inkscape:current-layer="layer1"
     showgrid="false"
     inkscape:object-paths="true"
     inkscape:window-width="1366"
     inkscape:window-height="709"
     inkscape:window-x="0"
     inkscape:window-y="25"
     inkscape:window-maximized="1" />
  <metadata
     id="metadata7">
    <rdf:RDF>
      <cc:Work
         rdf:about="">
        <dc:format>image/svg+xml</dc:format>
        <dc:type
           rdf:resource="http://purl.org/dc/dcmitype/StillImage" />
        <dc:title></dc:title>
      </cc:Work>
    </rdf:RDF>
  </metadata>
  <g
     inkscape:label="Camada 1"
     inkscape:groupmode="layer"
     id="layer1">
    <path
       sodipodi:type="inkscape:offset"
       inkscape:radius="0.33182958"
       inkscape:original="M 616.0625 56.65625 C 615.81783 56.663738 614.1163 58.550485 612.28125 60.84375 C 608.46962 65.607193 600.5453 72.413627 596.0625 74.75 C 588.0377 78.932408 574.0985 82.004262 554.90625 83.84375 C 535.38285 85.714982 516.53348 86.133932 475.0625 85.625 C 426.41473 85.027995 151.73367 83.922981 114.28125 85.25 C 89.672946 86.121925 69.652248 86.125934 69.34375 86.4375 C 69.292668 86.489086 69.136107 87.794315 69 89.3125 L 68.75 92.0625 L 69.9375 91.90625 C 72.080697 91.617279 92.953622 91.041678 116.28125 90.625 C 144.97826 90.112414 380.23247 90.412084 459.6875 91.0625 C 502.91022 91.416265 516.6529 91.412311 526.125 91.0625 C 576.24969 89.21136 597.00741 84.298247 611.4375 70.875 C 614.41822 68.102267 621.1875 60.057947 621.1875 59.28125 C 621.1875 58.819129 616.91742 56.63008 616.0625 56.65625 z "
       style="fill:#ff0000;fill-opacity:1;stroke-width:6.19999981;stroke-linejoin:round;stroke-miterlimit:4;stroke-dasharray:none"
       id="path3895"
       d="m 616.0625,56.3125 c -0.005,-0.19761 -1.88958,1.231568 -0.65625,0.4375 -0.23261,0.223386 -0.52915,0.523088 -0.875,0.90625 -0.69171,0.766325 -1.57895,1.817715 -2.5,2.96875 -3.7678,4.708665 -11.7343,11.55538 -16.125,13.84375 -7.94419,4.140396 -21.85874,7.193654 -41.03125,9.03125 -19.50789,1.869745 -38.34499,2.290139 -79.8125,1.78125 -48.65807,-0.597131 -323.26494,-1.704283 -360.78125,-0.375 -12.30099,0.43585 -23.474365,0.663569 -31.59375,0.8125 -4.059692,0.07447 -7.348945,0.129624 -9.65625,0.1875 -1.153652,0.02894 -2.056618,0.06182 -2.6875,0.09375 -0.315441,0.01596 -0.5696,0.04404 -0.75,0.0625 -0.0902,0.0092 -0.154029,0.0188 -0.21875,0.03125 -0.03236,0.0062 -0.05785,-0.01178 -0.09375,0 -0.0359,0.01178 -0.103783,0.04045 -0.1875,0.125 -7.98e-4,8.06e-4 -0.02116,0.0457 -0.03125,0.0625 -0.01009,0.0168 -0.02631,0.02018 -0.03125,0.03125 -0.0099,0.02214 0.0045,0.04806 0,0.0625 -0.009,0.02887 -0.0253,0.03502 -0.03125,0.0625 -0.01189,0.05495 -0.0187,0.13854 -0.03125,0.21875 -0.02509,0.160421 -0.0622,0.361391 -0.09375,0.625 -0.0631,0.527217 -0.150441,1.238061 -0.21875,2 l -0.25,2.75 a 0.33186276,0.33186276 0 0 0 0.125,0.28125 0.33186276,0.33186276 0 0 0 0.25,0.09375 L 69.96875,92.25 c 0.479569,-0.06466 2.223083,-0.180219 4.84375,-0.28125 2.620667,-0.101031 6.17471,-0.196468 10.375,-0.3125 8.40058,-0.232065 19.4309,-0.479178 31.09375,-0.6875 28.66232,-0.511966 263.95575,-0.212879 343.40625,0.4375 43.22332,0.35377 56.95366,0.350244 66.4375,0 25.07148,-0.925907 42.82775,-2.634569 56.125,-5.78125 13.29725,-3.146681 22.14789,-7.748083 29.40625,-14.5 1.51581,-1.410043 3.96081,-4.13242 6.03125,-6.59375 1.03522,-1.230665 1.96906,-2.397811 2.65625,-3.3125 0.3436,-0.457344 0.61357,-0.843958 0.8125,-1.15625 0.0995,-0.156146 0.19092,-0.286165 0.25,-0.40625 0.0591,-0.120085 0.125,-0.205954 0.125,-0.375 0,-0.156639 -0.0722,-0.243043 -0.125,-0.3125 -0.0528,-0.06946 -0.11793,-0.126389 -0.1875,-0.1875 -0.13914,-0.122221 -0.31665,-0.235037 -0.53125,-0.375 -0.4292,-0.279926 -0.99887,-0.601433 -1.59375,-0.90625 -0.59488,-0.304817 -1.21607,-0.598366 -1.75,-0.8125 -0.53393,-0.214134 -0.91766,-0.38613 -1.28125,-0.375 z" />
    <path
       style="fill:#ff0000;fill-opacity:1;stroke-width:6.19999981;stroke-linejoin:round;stroke-miterlimit:4;stroke-dasharray:none"
       d="m 407.36226,85.304484 c 1.72839,-0.06561 4.46053,-0.06527 6.07143,7.46e-4 1.61089,0.06602 0.19675,0.119701 -3.14254,0.119291 -3.33929,-4.11e-4 -4.65729,-0.05443 -2.92889,-0.120037 z"
       id="path3893"
       inkscape:connector-curvature="0" />
    <path
       d="m 616.0625,56.625 c -0.16528,0.08404 -0.76568,0.366361 -0.46875,0.34375 -0.22351,0.214643 -0.50079,0.526289 -0.84375,0.90625 -0.68593,0.759922 -1.58215,1.790467 -2.5,2.9375 -3.80764,4.758457 -11.71308,11.574246 -16.1875,13.90625 -8.01746,4.178584 -21.9658,7.254434 -41.15625,9.09375 -19.52199,1.871097 -38.37309,2.290178 -79.84375,1.78125 -48.64871,-0.597017 -323.32301,-1.702225 -360.78125,-0.375 -12.30386,0.435952 -23.474011,0.663562 -31.59375,0.8125 -4.05987,0.07447 -7.351197,0.129681 -9.65625,0.1875 -1.152527,0.02891 -2.061939,0.06209 -2.6875,0.09375 -0.312781,0.01583 -0.548176,0.01379 -0.71875,0.03125 -0.08529,0.0087 -0.138269,0.02178 -0.1875,0.03125 -0.02461,0.0047 -0.04615,0.02589 -0.0625,0.03125 -0.01635,0.0054 -0.0505,-0.01212 -0.0625,0 -7.98e-4,8.06e-4 0.0017,0.02844 0,0.03125 -0.0044,0.01423 -0.02642,0.04019 -0.03125,0.0625 -0.0097,0.04463 -0.01921,0.110507 -0.03125,0.1875 -0.02409,0.153986 -0.0312,0.363522 -0.0625,0.625 -0.06259,0.522955 -0.150673,1.240648 -0.21875,2 l -0.25,2.75 a 0.03020665,0.03020665 0 0 0 0,0.03125 0.03020665,0.03020665 0 0 0 0.03125,0 l 1.1875,-0.15625 c 0.530681,-0.07155 2.252469,-0.148897 4.875,-0.25 2.622531,-0.101103 6.142776,-0.227699 10.34375,-0.34375 8.401947,-0.232103 19.46127,-0.479163 31.125,-0.6875 28.69385,-0.51253 263.95163,-0.212913 343.40625,0.4375 43.22277,0.353765 56.96433,0.34985 66.4375,0 25.06318,-0.925601 42.80022,-2.611595 56.0625,-5.75 13.26228,-3.138405 22.06226,-7.722209 29.28125,-14.4375 1.49268,-1.388522 3.93459,-4.107143 6,-6.5625 1.03271,-1.227678 1.94326,-2.373821 2.625,-3.28125 0.34087,-0.453714 0.62085,-0.855395 0.8125,-1.15625 0.0958,-0.150427 0.16764,-0.271117 0.21875,-0.375 0.0511,-0.103883 0.0937,-0.190488 0.0937,-0.25 0,-0.04051 -0.0291,-0.08104 -0.0625,-0.125 -0.0334,-0.04396 -0.0648,-0.103406 -0.125,-0.15625 -0.12031,-0.105688 -0.29245,-0.208389 -0.5,-0.34375 -0.41509,-0.270722 -0.97461,-0.605013 -1.5625,-0.90625 -0.58789,-0.301237 -1.19699,-0.571997 -1.71875,-0.78125 -0.52176,-0.209253 -0.96013,-0.35071 -1.1875,-0.34375 z"
       id="path3897"
       style="fill:#000000;fill-opacity:1;stroke-width:6.19999981;stroke-linejoin:round;stroke-miterlimit:4;stroke-dasharray:none"
       inkscape:original="M 616.0625 56.65625 C 615.81783 56.663738 614.1163 58.550485 612.28125 60.84375 C 608.46962 65.607193 600.5453 72.413627 596.0625 74.75 C 588.0377 78.932408 574.0985 82.004262 554.90625 83.84375 C 535.38285 85.714982 516.53348 86.133932 475.0625 85.625 C 426.41473 85.027995 151.73367 83.922981 114.28125 85.25 C 89.672946 86.121925 69.652248 86.125934 69.34375 86.4375 C 69.292668 86.489086 69.136107 87.794315 69 89.3125 L 68.75 92.0625 L 69.9375 91.90625 C 72.080697 91.617279 92.953622 91.041678 116.28125 90.625 C 144.97826 90.112414 380.23247 90.412084 459.6875 91.0625 C 502.91022 91.416265 516.6529 91.412311 526.125 91.0625 C 576.24969 89.21136 597.00741 84.298247 611.4375 70.875 C 614.41822 68.102267 621.1875 60.057947 621.1875 59.28125 C 621.1875 58.819129 616.91742 56.63008 616.0625 56.65625 z "
       inkscape:radius="0.030203631"
       sodipodi:type="inkscape:offset"
       transform="matrix(1.0174572,-0.00517188,0,1.1014163,-2.2722023,1.363457)" />
  </g>
</svg>
